PathFileType	4	(x/y/z)	S02_P20_T16
DataRate	CameraRate	NumFrames	NumMarkers	Units	OrigDataRate	OrigDataStartFrame	OrigNumFrames
240	240	4	51	mm	240	300	342
Frame#	Time	Sternum			R.Acromium			L.Acromium			Top.Head			R.ASIS			L.ASIS			R.PSIS			L.PSIS			R.Great.Tro			L.Great.Tro			R.Iliac.Crest			L.Iliac.Crest			V.Sacral			R.Thigh.Upper.Post			R.Thigh.Lower.Ant			R.Thigh.Lower.Post			R.Thigh.Upper.Ant			R.Knee.Lat			R.Knee.Med			R.Shank.Upper.Post			R.Shank.Lower.Ant			R.Shank.Lower.Post			R.Shank.Upper.Ant			R.Ankle.Lat			R.Ankle.Med			R.Heel.Upper			R.Heel.Med			R.Heel.Lat			R.Toe.Lat			R.Toe.Med			R.Toe.Tip			L.Thigh.Upper.Post			L.Thigh.Lower.Ant			L.Thigh.Lower.Post			L.Thigh.Upper.Ant			L.Knee.Lat			L.Knee.Med			L.Shank.Upper.Post			L.Shank.Lower.Ant			L.Shank.Lower.Post			L.Shank.Upper.Ant			L.Ankle.Lat			L.Ankle.Med			L.Heel.Upper			L.Heel.Med			L.Heel.Lat			L.Toe.Lat			L.Toe.Med			L.Toe.Tip			Cervical.Spine			Back			
		X1	Y1	Z1	X2	Y2	Z2	X3	Y3	Z3	X4	Y4	Z4	X5	Y5	Z5	X6	Y6	Z6	X7	Y7	Z7	X8	Y8	Z8	X9	Y9	Z9	X10	Y10	Z10	X11	Y11	Z11	X12	Y12	Z12	X13	Y13	Z13	X14	Y14	Z14	X15	Y15	Z15	X16	Y16	Z16	X17	Y17	Z17	X18	Y18	Z18	X19	Y19	Z19	X20	Y20	Z20	X21	Y21	Z21	X22	Y22	Z22	X23	Y23	Z23	X24	Y24	Z24	X25	Y25	Z25	X26	Y26	Z26	X27	Y27	Z27	X28	Y28	Z28	X29	Y29	Z29	X30	Y30	Z30	X31	Y31	Z31	X32	Y32	Z32	X33	Y33	Z33	X34	Y34	Z34	X35	Y35	Z35	X36	Y36	Z36	X37	Y37	Z37	X38	Y38	Z38	X39	Y39	Z39	X40	Y40	Z40	X41	Y41	Z41	X42	Y42	Z42	X43	Y43	Z43	X44	Y44	Z44	X45	Y45	Z45	X46	Y46	Z46	X47	Y47	Z47	X48	Y48	Z48	X49	Y49	Z49	X50	Y50	Z50	X51	Y51	Z51	

300	1.2458	424.39	1106.6	311.25	305.4	1341.9	442.57	330.69	1342	149.65	388.72	1623.6	299.94	378.01	935.11	404.54	389.41	915.38	195.96	171.76	971.29	352.76	165.7	974.74	279.33	323.09	829.38	503.35	252.06	839.54	114.58	280.68	983.47	462.65	269.08	969.55	131.87	142.63	924.82	310.99	414.25	640.9	499.77	498.65	592.99	467.93	437.78	555.03	480.65	470.88	677.08	483.13	483.14	493.14	468.55	487.85	479.58	327.48	412.62	287.94	448.36	489.24	209.48	441.3	422.46	215.69	441.06	483.89	277.9	456.37	443.18	117.48	432.47	463.96	135.71	351.03	391.59	105.08	368.77	408.95	75.555	340.63	390.16	70.848	401.59	543.32	59.262	464.6	588.3	63.262	365.42	627.92	86.462	428.01	192.86	618.1	149.15	254.65	527.24	158.35	177.47	531.6	174.56	263.38	619.21	133.81	222.82	451.29	170.85	218	454.6	310.08	111.81	294.92	179.14	167.99	199.31	198.02	99.239	223.61	198.88	173.44	273.67	179.28	109.72	103.92	217.11	121.26	99.766	297.54	47.928	71.93	250.4	56.062	45.248	283.55	52.837	44.542	221.92	218.37	34.921	190.72	240.8	44.374	301.1	300.99	58.01	253.43	244.63	1402.7	289.75	168.21	1151.8	287.62
301	1.25	429.76	1105.4	311.73	310.53	1340.8	442.78	336.51	1341	149.93	393.93	1622.7	300.36	383.56	934.03	404.8	394.8	914.17	196.17	177.16	970.07	353.19	171.04	973.52	279.77	329.06	828.5	503.64	257.04	839.04	114.64	286.1	982.37	462.95	274.39	968.38	132.14	148.05	923.55	311.45	420.45	640	499.54	504.51	592.14	466.84	443.91	554.12	480.41	476.73	676.24	482.08	489.44	492.44	467.84	492.82	478.48	326.5	423.34	285.6	448.27	501.92	209	441.03	434.93	213.55	440.94	494.97	277.31	456.11	458.1	115.58	432.35	478.17	134.19	350.85	406.66	101.54	368.84	424.77	72.46	340.69	406.27	67.326	401.66	559.86	60.073	464.28	604.46	65.254	365.05	643.64	89.603	427.5	196.53	618.14	149.24	257.59	526.81	158.49	180.44	531.78	174.7	267.07	618.7	133.94	225.1	451.06	170.88	220.09	454.45	310.16	113.01	295.22	179.23	168.78	199.36	198.03	100.18	224.08	198.88	174.64	273.68	179.27	109.95	104.18	217.16	121.5	99.96	297.6	48.028	72.163	250.46	56.13	45.471	283.6	52.878	44.766	221.97	218.41	34.868	190.73	240.91	44.325	301.11	301.1	57.832	253.42	250.06	1401.7	289.83	173.65	1150.8	287.39
302	1.2542	435.14	1104.2	312.24	315.68	1339.7	443.01	342.33	1339.9	150.24	399.14	1621.6	300.79	389.13	932.91	405.1	400.23	912.92	196.41	182.58	968.82	353.61	176.39	972.27	280.2	335.01	827.51	503.93	262.06	838.51	114.7	291.52	981.22	463.27	279.74	967.18	132.41	153.47	922.25	311.89	426.67	639.04	499.33	510.36	591.2	465.73	450.03	553.14	480.22	482.58	675.32	480.99	495.72	491.65	467.15	497.78	477.28	325.51	433.84	283.34	448.17	514.28	208.55	440.73	447.11	211.51	440.81	505.8	276.73	455.85	472.66	113.79	432.19	491.99	132.78	350.64	421.37	98.176	368.88	440.18	69.557	340.71	422	63.995	401.71	575.96	60.964	463.86	620.1	67.329	364.53	658.87	92.771	426.85	200.31	618.13	149.32	260.65	526.33	158.64	183.54	531.91	174.83	270.86	618.14	134.07	227.5	450.79	170.93	222.29	454.29	310.26	114.33	295.54	179.3	169.63	199.4	198.04	101.18	224.55	198.87	175.92	273.69	179.27	110.18	104.45	217.2	121.74	100.17	297.66	48.13	72.416	250.5	56.196	45.718	283.64	52.918	45.004	222.02	218.44	34.811	190.74	241.02	44.275	301.11	301.22	57.647	253.41	255.51	1400.7	289.93	179.1	1149.8	287.17
303	1.2583	440.53	1103	312.78	320.87	1338.5	443.25	348.17	1338.8	150.58	404.35	1620.6	301.24	394.72	931.76	405.43	405.68	911.62	196.67	188.02	967.53	354.02	181.77	971	280.63	340.95	826.42	504.2	267.12	837.97	114.78	296.95	980.03	463.61	285.12	965.94	132.69	158.92	920.93	312.32	432.9	638.02	499.15	516.21	590.2	464.61	456.17	552.1	480.05	488.43	674.35	479.88	501.98	490.79	466.49	502.74	475.98	324.54	444.11	281.16	448.06	526.28	208.14	440.4	458.97	209.58	440.64	516.35	276.16	455.57	486.81	112.12	431.98	505.36	131.48	350.38	435.67	94.983	368.91	455.14	66.838	340.7	437.31	60.853	401.73	591.57	61.909	463.33	635.19	69.449	363.89	673.55	95.927	426.05	204.2	618.07	149.39	263.84	525.82	158.8	186.76	531.99	174.97	274.76	617.54	134.21	230.04	450.49	171	224.63	454.1	310.38	115.75	295.87	179.36	170.53	199.44	198.05	102.25	225.02	198.86	177.29	273.68	179.28	110.42	104.75	217.23	122	100.39	297.72	48.236	72.693	250.53	56.259	45.994	283.68	52.958	45.259	222.06	218.48	34.75	190.75	241.12	44.225	301.11	301.34	57.457	253.4	260.96	1399.6	290.05	184.56	1148.7	286.97
